<mxfile host="app.diagrams.net" agent="Mozilla/5.0 (Windows NT 10.0; Win64; x64; rv:130.0) Gecko/20100101 Firefox/130.0" version="24.7.16">
  <diagram id="C5RBs43oDa-KdzZeNtuy" name="Page-1">
    <mxGraphModel dx="880" dy="441" grid="1" gridSize="10" guides="1" tooltips="1" connect="1" arrows="1" fold="1" page="1" pageScale="1" pageWidth="827" pageHeight="1169" math="0" shadow="0">
      <root>
        <mxCell id="WIyWlLk6GJQsqaUBKTNV-0" />
        <mxCell id="WIyWlLk6GJQsqaUBKTNV-1" parent="WIyWlLk6GJQsqaUBKTNV-0" />
        <mxCell id="S93RwtLcUA11SHX7gJZd-3" value="" style="edgeStyle=orthogonalEdgeStyle;rounded=0;orthogonalLoop=1;jettySize=auto;html=1;" edge="1" parent="WIyWlLk6GJQsqaUBKTNV-1" source="S93RwtLcUA11SHX7gJZd-0" target="S93RwtLcUA11SHX7gJZd-2">
          <mxGeometry relative="1" as="geometry" />
        </mxCell>
        <mxCell id="S93RwtLcUA11SHX7gJZd-0" value="Başla" style="ellipse;whiteSpace=wrap;html=1;" vertex="1" parent="WIyWlLk6GJQsqaUBKTNV-1">
          <mxGeometry x="349" y="60" width="130" height="70" as="geometry" />
        </mxCell>
        <mxCell id="S93RwtLcUA11SHX7gJZd-5" value="" style="edgeStyle=orthogonalEdgeStyle;rounded=0;orthogonalLoop=1;jettySize=auto;html=1;" edge="1" parent="WIyWlLk6GJQsqaUBKTNV-1" source="S93RwtLcUA11SHX7gJZd-2" target="S93RwtLcUA11SHX7gJZd-4">
          <mxGeometry relative="1" as="geometry" />
        </mxCell>
        <mxCell id="S93RwtLcUA11SHX7gJZd-2" value="&lt;div&gt;tost ekmeği&lt;/div&gt;&lt;div&gt;fıstık ezmesi&lt;/div&gt;&lt;div&gt;ahududu reçeli&lt;br&gt;&lt;/div&gt;" style="shape=parallelogram;perimeter=parallelogramPerimeter;whiteSpace=wrap;html=1;fixedSize=1;" vertex="1" parent="WIyWlLk6GJQsqaUBKTNV-1">
          <mxGeometry x="342" y="170" width="144" height="60" as="geometry" />
        </mxCell>
        <mxCell id="S93RwtLcUA11SHX7gJZd-7" value="" style="edgeStyle=orthogonalEdgeStyle;rounded=0;orthogonalLoop=1;jettySize=auto;html=1;" edge="1" parent="WIyWlLk6GJQsqaUBKTNV-1" source="S93RwtLcUA11SHX7gJZd-4" target="S93RwtLcUA11SHX7gJZd-6">
          <mxGeometry relative="1" as="geometry" />
        </mxCell>
        <mxCell id="S93RwtLcUA11SHX7gJZd-4" value="iki dilim tost ekmeğini poşetten çıkar" style="rounded=0;whiteSpace=wrap;html=1;" vertex="1" parent="WIyWlLk6GJQsqaUBKTNV-1">
          <mxGeometry x="354" y="290" width="120" height="60" as="geometry" />
        </mxCell>
        <mxCell id="S93RwtLcUA11SHX7gJZd-9" value="" style="edgeStyle=orthogonalEdgeStyle;rounded=0;orthogonalLoop=1;jettySize=auto;html=1;" edge="1" parent="WIyWlLk6GJQsqaUBKTNV-1" source="S93RwtLcUA11SHX7gJZd-6" target="S93RwtLcUA11SHX7gJZd-8">
          <mxGeometry relative="1" as="geometry" />
        </mxCell>
        <mxCell id="S93RwtLcUA11SHX7gJZd-6" value="tost ekmeklerinden birini tabağa koy" style="rounded=0;whiteSpace=wrap;html=1;" vertex="1" parent="WIyWlLk6GJQsqaUBKTNV-1">
          <mxGeometry x="354" y="410" width="120" height="60" as="geometry" />
        </mxCell>
        <mxCell id="S93RwtLcUA11SHX7gJZd-11" value="" style="edgeStyle=orthogonalEdgeStyle;rounded=0;orthogonalLoop=1;jettySize=auto;html=1;" edge="1" parent="WIyWlLk6GJQsqaUBKTNV-1" source="S93RwtLcUA11SHX7gJZd-8" target="S93RwtLcUA11SHX7gJZd-10">
          <mxGeometry relative="1" as="geometry" />
        </mxCell>
        <mxCell id="S93RwtLcUA11SHX7gJZd-8" value="iki kaşık fıstık ezmesini tabaktaki ekmeğin üstüne sür" style="rounded=0;whiteSpace=wrap;html=1;" vertex="1" parent="WIyWlLk6GJQsqaUBKTNV-1">
          <mxGeometry x="354" y="525" width="120" height="60" as="geometry" />
        </mxCell>
        <mxCell id="S93RwtLcUA11SHX7gJZd-13" value="" style="edgeStyle=orthogonalEdgeStyle;rounded=0;orthogonalLoop=1;jettySize=auto;html=1;" edge="1" parent="WIyWlLk6GJQsqaUBKTNV-1" source="S93RwtLcUA11SHX7gJZd-10" target="S93RwtLcUA11SHX7gJZd-12">
          <mxGeometry relative="1" as="geometry" />
        </mxCell>
        <mxCell id="S93RwtLcUA11SHX7gJZd-10" value="fıstık ezmesinin üstüne bir kaşık ahududu reçeli sür" style="rounded=0;whiteSpace=wrap;html=1;" vertex="1" parent="WIyWlLk6GJQsqaUBKTNV-1">
          <mxGeometry x="354" y="640" width="120" height="60" as="geometry" />
        </mxCell>
        <mxCell id="S93RwtLcUA11SHX7gJZd-15" value="" style="edgeStyle=orthogonalEdgeStyle;rounded=0;orthogonalLoop=1;jettySize=auto;html=1;" edge="1" parent="WIyWlLk6GJQsqaUBKTNV-1" source="S93RwtLcUA11SHX7gJZd-12" target="S93RwtLcUA11SHX7gJZd-14">
          <mxGeometry relative="1" as="geometry" />
        </mxCell>
        <mxCell id="S93RwtLcUA11SHX7gJZd-12" value="ikinci tost ekmeğini ilk ekmeğin üzerine baştırarak kapat" style="rounded=0;whiteSpace=wrap;html=1;" vertex="1" parent="WIyWlLk6GJQsqaUBKTNV-1">
          <mxGeometry x="354" y="760" width="120" height="60" as="geometry" />
        </mxCell>
        <mxCell id="S93RwtLcUA11SHX7gJZd-17" value="" style="edgeStyle=orthogonalEdgeStyle;rounded=0;orthogonalLoop=1;jettySize=auto;html=1;" edge="1" parent="WIyWlLk6GJQsqaUBKTNV-1" source="S93RwtLcUA11SHX7gJZd-14" target="S93RwtLcUA11SHX7gJZd-16">
          <mxGeometry relative="1" as="geometry" />
        </mxCell>
        <mxCell id="S93RwtLcUA11SHX7gJZd-14" value="fıstık ezmeli sandiviçi servis et" style="rounded=0;whiteSpace=wrap;html=1;" vertex="1" parent="WIyWlLk6GJQsqaUBKTNV-1">
          <mxGeometry x="354" y="880" width="120" height="60" as="geometry" />
        </mxCell>
        <mxCell id="S93RwtLcUA11SHX7gJZd-16" value="&lt;div&gt;Bitir&lt;/div&gt;" style="ellipse;whiteSpace=wrap;html=1;" vertex="1" parent="WIyWlLk6GJQsqaUBKTNV-1">
          <mxGeometry x="354" y="1000" width="120" height="80" as="geometry" />
        </mxCell>
      </root>
    </mxGraphModel>
  </diagram>
</mxfile>
